<?xml version="1.0" standalone="no"?>
<!DOCTYPE svg PUBLIC "-//W3C//DTD SVG 20010904//EN"
 "http://www.w3.org/TR/2001/REC-SVG-20010904/DTD/svg10.dtd">
<svg version="1.0" xmlns="http://www.w3.org/2000/svg"
 width="512.000000pt" height="384.000000pt" viewBox="0 0 512.000000 384.000000"
 preserveAspectRatio="xMidYMid meet">

<g transform="translate(0.000000,384.000000) scale(0.100000,-0.100000)"
fill="#000000" stroke="none">
<path d="M5040 3830 c0 -5 5 -10 11 -10 5 0 7 5 4 10 -3 6 -8 10 -11 10 -2 0
-4 -4 -4 -10z"/>
<path d="M5080 3831 c0 -5 7 -11 14 -14 10 -4 13 -1 9 9 -6 15 -23 19 -23 5z"/>
<path d="M3640 3450 c-14 -4 -49 -20 -78 -35 -49 -25 -52 -29 -37 -45 20 -22
10 -49 -24 -62 l-26 -10 26 -13 c15 -8 29 -21 33 -30 3 -8 13 -15 23 -15 23 0
144 71 138 80 -11 18 -8 102 4 110 23 14 -24 30 -59 20z"/>
<path d="M3879 3378 c-8 -27 -6 -48 5 -57 10 -8 12 -21 7 -39 -4 -15 -6 -46
-3 -69 3 -30 0 -43 -8 -43 -7 0 -10 -7 -6 -15 4 -10 -7 -21 -33 -35 -21 -10
-52 -32 -69 -47 -67 -63 -95 -77 -122 -63 -10 6 -24 18 -29 28 -20 34 -12 -55
10 -110 17 -43 23 -87 30 -232 5 -98 11 -186 13 -195 3 -9 8 -36 11 -61 11
-99 18 -122 58 -182 38 -59 41 -67 39 -127 -2 -35 -7 -82 -12 -105 -5 -23 -10
-61 -10 -86 0 -76 -11 -122 -27 -116 -8 3 -11 1 -8 -4 3 -6 -3 -10 -14 -10
-13 0 -21 -7 -21 -17 0 -14 -4 -12 -18 8 -51 76 -134 160 -253 255 -118 95
-143 122 -155 168 -3 14 -10 24 -14 21 -5 -3 -15 2 -23 10 -20 20 -28 19 -21
-2 4 -10 -5 -5 -19 12 -14 17 -34 63 -45 105 -42 156 -64 222 -82 240 -10 10
-20 16 -23 14 -2 -3 -4 30 -4 73 -1 123 -44 246 -112 318 -21 22 -50 57 -65
77 -15 20 -50 52 -78 70 -54 34 -56 34 -218 27 -65 -3 -166 19 -235 51 -76 36
-129 55 -101 37 10 -6 46 -30 80 -52 70 -46 131 -105 236 -229 41 -48 98 -114
126 -145 28 -31 59 -72 70 -91 10 -19 22 -37 25 -40 11 -9 31 -53 22 -47 -14
9 -86 -61 -77 -75 6 -10 3 -9 -9 1 -14 11 -18 11 -23 -3 -3 -9 -4 -22 -1 -30
4 -10 -4 -18 -24 -25 -16 -5 -29 -15 -29 -21 0 -6 -8 -4 -17 6 -16 16 -18 15
-31 -16 -7 -18 -11 -41 -9 -51 3 -10 0 -20 -7 -23 -8 -3 -7 -7 2 -14 11 -8 11
-11 0 -23 -7 -8 -15 -23 -16 -34 -2 -11 -26 -45 -54 -77 -27 -31 -49 -59 -49
-63 2 -17 -2 -22 -30 -39 -23 -14 -27 -21 -19 -31 8 -10 6 -17 -10 -28 -12 -8
-22 -24 -23 -35 0 -11 -5 -18 -9 -16 -4 3 -8 -4 -8 -16 0 -12 -4 -18 -10 -15
-6 4 -10 -7 -10 -25 0 -18 -6 -33 -15 -36 -8 -4 -15 -13 -15 -22 0 -13 -3 -12
-19 4 -10 10 -18 24 -17 29 0 6 -5 9 -11 7 -7 -1 -13 7 -13 17 0 11 -6 21 -12
23 -7 3 4 15 25 29 46 30 74 97 82 198 7 87 -2 93 -71 57 -53 -27 -139 -56
-249 -85 -77 -20 -190 -69 -238 -103 -18 -13 -28 -16 -23 -7 6 11 5 11 -6 -1
-7 -8 -26 -24 -42 -34 -48 -30 -85 -67 -149 -146 -79 -99 -123 -193 -126 -271
-3 -84 3 -99 44 -99 39 0 55 13 127 105 83 106 125 145 221 210 123 83 130 86
216 96 42 4 90 11 106 14 36 8 119 -25 134 -53 10 -19 9 -47 -3 -92 -4 -14 -9
-38 -11 -55 -2 -16 -4 -30 -5 -30 -2 0 -4 -25 -20 -210 -6 -77 -13 -157 -15
-178 -2 -21 -6 -55 -10 -75 -4 -20 -8 -78 -9 -129 0 -50 -4 -89 -8 -87 -4 3
-7 -4 -8 -13 -5 -72 -12 -275 -16 -473 -2 -129 -9 -260 -15 -290 -13 -63 -29
-110 -38 -111 -91 -9 -111 -9 -111 2 0 6 8 9 19 6 17 -4 31 9 31 29 0 6 -24 0
-31 -8 -3 -5 -14 -2 -24 6 -19 13 -19 14 0 13 47 0 65 4 65 14 0 15 -69 43
-110 44 -19 1 -44 5 -54 10 -13 6 -17 5 -13 -2 9 -15 -21 -45 -35 -37 -6 4 -8
3 -5 -3 9 -14 -29 -30 -102 -42 -51 -8 -70 -7 -98 4 -24 10 -52 13 -88 9 -44
-6 -62 -2 -109 20 -61 29 -71 42 -79 101 -19 146 -19 151 1 196 11 24 34 74
50 112 19 40 26 67 19 67 -6 0 -1 7 11 16 12 8 22 23 22 33 0 10 11 39 25 65
14 26 30 79 35 117 12 87 27 122 75 179 33 39 75 118 75 138 0 4 -14 -17 -30
-45 -17 -29 -33 -53 -37 -53 -3 0 -17 12 -31 27 l-24 27 7 -32 c4 -18 2 -39
-5 -49 -10 -16 -10 -15 -5 5 7 25 -3 28 -31 8 -10 -8 -23 -11 -29 -7 -23 18
-53 18 -66 0 -7 -10 -17 -15 -21 -13 -5 3 -1 12 9 21 17 13 17 13 -3 4 -25
-12 -37 -47 -20 -56 6 -3 1 -3 -12 -1 -12 2 -20 1 -17 -3 7 -13 -26 -53 -40
-47 -8 3 -19 -2 -26 -10 -10 -12 -14 -12 -20 -2 -6 9 -9 6 -9 -10 0 -13 -4
-21 -9 -17 -5 3 -17 -5 -25 -17 l-15 -22 -9 23 -8 22 -25 -23 c-32 -29 -84
-63 -75 -49 4 6 2 11 -4 11 -6 0 -9 -8 -6 -17 4 -13 -3 -23 -23 -35 -40 -22
-65 -64 -63 -103 3 -35 -15 -56 -28 -35 -5 8 -11 1 -19 -21 -14 -41 -14 -44 4
-29 12 10 15 10 15 -3 0 -8 -7 -20 -15 -27 -8 -7 -15 -24 -15 -39 0 -15 -9
-35 -21 -44 -17 -15 -18 -21 -8 -33 6 -8 9 -17 5 -21 -3 -3 -6 -1 -6 6 0 7 -4
10 -9 6 -6 -3 -9 -29 -9 -58 2 -61 -5 -77 -33 -77 -11 0 -17 5 -14 10 9 15 -1
12 -18 -5 -12 -11 -13 -23 -4 -62 6 -26 11 -68 11 -93 1 -25 5 -48 10 -52 6
-4 30 -4 55 -1 26 2 57 0 71 -6 23 -9 23 -10 3 -10 -16 -1 -20 -6 -16 -20 4
-14 -2 -19 -26 -23 -17 -2 -31 -1 -31 4 0 4 7 8 15 8 8 0 15 7 15 15 0 8 -9
15 -20 15 -14 0 -20 -7 -20 -24 0 -13 -6 -26 -12 -29 -43 -15 44 -19 389 -17
213 1 443 3 510 4 67 2 120 -1 117 -6 -3 -4 -18 -8 -34 -8 -15 0 -30 -6 -33
-14 -5 -12 10 -14 96 -10 56 2 156 6 222 8 66 3 144 10 174 15 57 12 128 15
119 6 -5 -5 -45 -10 -108 -14 -24 -1 -24 -1 -4 -16 16 -10 30 -12 52 -6 17 5
33 7 36 4 2 -3 56 -4 118 -3 144 3 185 3 226 -2 18 -2 35 -1 38 4 3 4 20 8 37
7 25 0 28 -2 13 -8 -19 -7 -19 -8 2 -13 16 -5 22 -2 22 10 0 12 3 13 8 5 5 -8
13 -9 22 -3 9 5 19 5 27 -2 7 -6 13 -8 13 -5 0 3 19 1 41 -4 37 -9 45 -7 66
13 21 20 27 21 55 10 17 -6 36 -8 41 -5 6 4 98 8 204 11 152 3 197 1 210 -10
9 -7 14 -8 10 -2 -4 8 1 12 16 12 12 1 37 4 55 8 47 9 89 -11 98 -48 4 -22 9
-27 14 -17 5 7 4 21 -1 30 -13 25 -12 29 12 29 13 0 18 -4 13 -13 -5 -8 -2 -8
9 2 9 7 17 9 17 4 0 -13 42 -14 57 -1 7 5 27 8 45 4 73 -13 78 -13 78 0 0 8 8
14 18 14 9 1 59 3 111 7 72 4 92 3 86 -7 -5 -8 1 -8 21 2 16 8 58 15 94 17 36
2 69 6 74 9 5 3 6 0 2 -6 -4 -7 -24 -12 -45 -12 -28 0 -38 -4 -38 -16 0 -9 9
-19 19 -22 22 -5 23 -18 2 -26 -8 -3 -13 -2 -10 2 3 5 -1 9 -7 9 -15 0 -20
-34 -6 -43 5 -3 16 -1 23 5 7 6 16 8 20 4 4 -4 4 0 0 10 -5 13 -2 16 10 11 9
-3 16 -1 16 6 0 6 -5 8 -12 4 -8 -5 -9 -2 -5 10 4 10 7 22 7 28 0 6 11 8 26 5
18 -3 24 -1 20 9 -4 9 2 14 17 13 12 0 16 -3 10 -6 -16 -6 -17 -33 -2 -33 5 0
8 -4 5 -9 -4 -5 -2 -11 4 -13 12 -4 1 -48 -12 -48 -5 0 -6 5 -2 12 4 7 3 8 -5
4 -9 -6 -9 -11 1 -24 7 -9 8 -13 2 -9 -7 4 -17 0 -24 -8 -10 -12 -16 -13 -26
-4 -9 8 -14 8 -14 1 0 -6 -7 -17 -15 -26 -14 -13 -11 -15 27 -13 24 0 48 6 53
13 6 6 24 16 41 22 29 9 31 8 27 -13 -4 -19 -1 -22 26 -21 21 1 30 5 26 14 -7
19 13 53 46 80 16 13 26 30 24 41 -4 21 -4 21 108 28 58 3 87 1 87 -6 0 -6 -4
-11 -10 -11 -5 0 -7 -7 -3 -16 3 -9 0 -20 -8 -25 -12 -8 -12 -10 0 -18 12 -8
12 -11 -1 -25 -9 -8 -18 -12 -22 -9 -3 4 -6 -1 -6 -10 0 -21 4 -21 24 -1 15
14 16 14 16 0 0 -9 5 -16 11 -16 7 0 9 11 6 30 -4 17 -2 30 3 30 6 0 10 -15
10 -33 0 -33 -1 -34 -44 -34 -37 -1 -45 2 -51 20 -6 22 -6 22 -14 2 -5 -11 -6
-24 -3 -30 3 -5 -1 -5 -7 1 -7 7 -22 9 -33 6 -40 -10 6 -22 90 -22 58 0 81 3
76 11 -4 8 -1 8 12 1 28 -15 174 -14 174 1 0 8 3 8 8 2 9 -14 72 -19 72 -7 0
6 -8 13 -17 16 -15 6 -15 8 -3 16 10 7 11 10 3 10 -18 0 -16 20 3 41 12 14 13
24 6 53 -6 20 -7 38 -3 40 4 3 8 23 9 45 l3 41 -150 0 c-99 0 -152 4 -157 11
-4 8 1 9 17 5 23 -7 23 -6 4 5 -27 17 -36 31 -29 51 4 13 -3 18 -28 21 l-33 4
35 1 c20 1 40 -2 45 -7 16 -15 84 -30 90 -20 3 5 14 3 25 -3 13 -8 16 -15 8
-19 -6 -4 -13 -15 -14 -24 -2 -14 9 -16 77 -14 l79 3 -30 28 c-17 15 -26 28
-21 28 6 0 11 6 11 14 0 16 37 28 46 15 16 -26 24 0 24 81 0 102 -1 103 -81
75 -46 -16 -119 -22 -137 -11 -6 3 -13 2 -16 -3 -4 -5 -23 -7 -45 -5 -21 3
-49 0 -63 -5 -18 -7 -30 -5 -48 9 -22 17 -56 17 -45 0 2 -4 -10 -8 -28 -8
-105 -1 -100 1 -95 -37 3 -29 1 -35 -15 -35 -16 0 -17 3 -7 15 6 8 9 19 5 25
-4 6 -1 17 5 25 10 12 7 17 -15 25 -14 5 -33 10 -41 10 -16 0 -16 1 -19 96 -2
45 -11 93 -25 130 -12 32 -26 93 -30 134 -5 41 -26 132 -48 201 -22 69 -43
155 -46 190 -22 202 -44 323 -81 434 -23 70 -40 140 -90 370 -14 66 -35 147
-46 179 -30 89 -58 209 -74 321 -21 148 -33 214 -49 270 -7 28 -11 61 -8 75
27 119 -34 430 -84 430 -9 0 -12 5 -9 10 3 6 4 10 1 10 -3 0 -6 -1 -7 -2z
m-1275 -873 c3 -8 1 -15 -4 -15 -6 0 -10 7 -10 15 0 8 2 15 4 15 2 0 6 -7 10
-15z m-131 -276 c-8 -8 -13 -7 -18 2 -5 8 -4 10 3 5 7 -4 12 -2 12 5 0 7 3 9
7 6 4 -4 2 -12 -4 -18z m723 -454 c2 -82 18 -128 60 -165 34 -30 58 -38 68
-22 3 5 -4 37 -15 73 -15 46 -17 69 -10 80 8 13 6 16 -7 14 -9 -1 -11 0 -4 2
7 3 9 10 5 16 -4 7 0 7 10 -1 9 -8 21 -11 27 -7 14 9 65 -33 65 -53 1 -10 6
-16 11 -15 13 2 170 -166 207 -222 56 -84 58 -89 23 -50 -20 22 -36 36 -36 30
0 -5 -4 -4 -8 3 -7 9 -13 8 -27 -8 -10 -11 -13 -20 -8 -20 6 0 13 -11 15 -25
3 -14 4 -25 2 -25 -1 0 -10 -3 -18 -6 -12 -5 -15 -2 -10 12 5 15 3 14 -10 -4
-22 -29 -27 -108 -7 -104 12 3 12 0 2 -12 -8 -9 -8 -16 -2 -20 6 -4 7 -14 4
-23 -4 -11 -18 9 -44 63 -21 44 -38 77 -39 74 -1 -15 41 -115 50 -118 6 -2 7
-8 4 -13 -10 -17 164 -229 188 -229 22 0 80 -58 98 -98 10 -23 26 -45 34 -48
9 -3 14 -9 12 -13 -3 -4 11 -34 30 -67 19 -32 40 -71 46 -86 7 -16 16 -28 20
-28 4 0 8 -7 8 -16 0 -8 4 -13 8 -10 4 2 8 -3 9 -13 1 -10 11 -39 23 -65 18
-38 20 -51 12 -74 -6 -15 -14 -51 -17 -80 -4 -28 -11 -49 -16 -46 -5 3 -6 11
-2 17 4 7 -1 5 -11 -3 -10 -8 -27 -16 -39 -17 -40 -6 -30 -13 19 -13 27 0 56
-5 64 -11 13 -9 12 -10 -2 -5 -13 4 -18 0 -18 -14 0 -27 -12 -32 -97 -36 -42
-2 -79 -8 -83 -14 -8 -12 -70 -2 -70 12 0 6 7 8 14 5 10 -4 13 -1 9 9 -3 7 -1
14 4 14 5 0 10 7 10 15 0 8 -4 12 -9 9 -4 -3 -8 -2 -8 3 0 9 -98 7 -146 -2
-17 -4 -47 -2 -66 3 -30 8 -37 7 -48 -8 -13 -18 -74 -35 -64 -18 11 17 -20 7
-48 -17 -32 -27 -57 -32 -76 -13 -7 7 -12 8 -12 3 0 -6 -5 -3 -10 5 -8 12 -10
11 -10 -7 0 -27 -19 -40 -31 -22 -5 9 -29 14 -66 15 -32 0 -65 3 -73 6 -35 15
-45 14 -55 -5 -10 -21 -45 -33 -45 -16 0 13 -37 11 -52 -3 -18 -18 -57 -21
-89 -7 -31 12 -50 50 -50 100 0 19 0 59 0 89 0 36 11 90 30 149 17 52 31 101
31 110 0 9 6 27 13 42 21 39 46 117 40 123 -3 3 -1 11 4 18 6 7 13 26 17 41 6
24 5 27 -8 15 -8 -7 -12 -15 -11 -17 2 -2 -5 -12 -15 -24 -11 -11 -17 -24 -14
-29 8 -12 -50 -10 -63 3 -9 9 -10 6 -6 -11 4 -16 3 -21 -5 -16 -19 12 -14 65
12 120 36 76 57 129 62 151 2 11 7 33 10 49 l6 30 14 -25 c12 -22 18 -20 15 6
-1 6 6 1 14 -9 8 -11 15 -24 15 -30 0 -5 3 -7 6 -4 6 7 -14 50 -28 59 -5 3 -4
18 2 34 6 15 8 30 5 33 -3 3 -5 -1 -5 -9 0 -11 -2 -11 -10 1 -25 38 11 221 83
424 48 134 57 153 57 119 0 -12 8 -23 19 -26 15 -3 18 -12 15 -43 -3 -51 -23
-169 -30 -188 -3 -9 -4 -16 0 -16 5 0 23 59 31 102 2 10 6 22 9 27 3 5 8 46
12 92 3 51 11 90 20 100 8 9 11 19 8 22 -4 4 4 1 17 -5 21 -10 24 -18 25 -73z
m559 -500 c56 -76 109 -165 125 -210 9 -28 9 -29 -6 -10 -8 11 -20 20 -27 21
-28 2 -66 24 -71 42 -10 32 -44 58 -58 44 -6 -6 -8 -15 -3 -19 4 -5 10 -2 12
5 4 10 8 10 19 1 21 -17 17 -29 -11 -29 -35 0 -40 21 -16 61 11 18 18 36 15
41 -3 4 7 3 23 -2 25 -9 26 -8 11 4 -10 7 -18 18 -18 23 0 6 -8 21 -18 34 -10
13 -29 42 -41 64 -28 49 -7 27 64 -70z m-210 25 c3 -6 -1 -7 -9 -4 -18 7 -21
14 -7 14 6 0 13 -4 16 -10z m482 -22 c2 -17 0 -19 -7 -8 -5 8 -6 18 -4 22 8
12 10 10 11 -14z m-380 -6 c1 -10 -5 -19 -13 -19 -17 0 -18 9 -2 25 15 15 13
15 15 -6z m83 -2 c0 -5 -5 -12 -12 -16 -7 -4 -8 -3 -4 4 4 7 1 12 -9 12 -10 0
-13 -5 -9 -12 5 -7 3 -8 -7 -3 -12 8 -12 6 -1 -8 15 -18 8 -37 -13 -37 -27 0
-26 33 2 56 26 20 53 22 53 4z m-97 -50 c4 0 5 5 2 10 -3 6 -4 10 0 10 3 0 10
-12 16 -27 7 -19 6 -29 -2 -37 -9 -8 -10 -7 -6 6 3 10 0 19 -9 22 -26 10 -36
7 -30 -9 4 -12 2 -13 -13 -3 -17 10 -17 12 -2 28 9 10 20 13 26 9 5 -5 13 -9
18 -9z m493 -56 c34 -72 61 -178 32 -129 -14 25 -28 35 -48 34 -8 0 -4 -5 10
-10 24 -10 24 -11 6 -24 -13 -10 -24 -11 -37 -4 -11 5 -19 6 -19 2 0 -4 -5 -1
-10 7 -27 42 7 89 45 64 19 -13 21 -12 20 3 -4 36 -17 73 -26 73 -5 0 -3 -13
6 -29 14 -28 5 -55 -10 -31 -4 6 -10 8 -15 5 -4 -3 -11 11 -15 31 -3 20 -9 34
-11 31 -3 -3 -1 -21 4 -41 13 -44 -2 -48 -17 -5 -12 36 -14 82 -4 92 3 4 17 7
30 7 19 0 29 -14 59 -76z m-2602 -162 c-5 -45 -14 -70 -31 -90 -13 -15 -23
-22 -22 -17 3 22 -2 36 -11 30 -19 -12 -10 10 13 30 28 24 40 52 27 60 -6 4
-3 17 6 31 9 13 18 23 20 21 2 -2 1 -31 -2 -65z m2356 -117 c7 -9 8 -15 2 -15
-5 0 -12 7 -16 15 -3 8 -4 15 -2 15 2 0 9 -7 16 -15z m44 -9 c-1 -9 11 -25 26
-36 15 -11 33 -33 38 -49 8 -23 7 -31 -9 -44 -18 -16 -21 -14 -54 38 -39 62
-42 73 -20 81 13 5 13 9 3 22 -11 13 -10 14 2 10 8 -3 14 -13 14 -22z m-1624
-76 c0 -5 2 -15 5 -23 5 -10 -1 -13 -25 -9 -38 5 -42 36 -5 38 14 1 25 -2 25
-6z m517 -21 c-3 -12 -2 -32 3 -45 5 -13 6 -24 1 -24 -5 0 -11 12 -14 26 -5
26 1 64 10 64 3 0 3 -9 0 -21z m-543 -66 c9 4 16 1 16 -4 0 -7 -11 -9 -25 -6
-17 3 -24 0 -22 -7 2 -6 11 -10 20 -8 19 3 54 -26 58 -48 3 -21 -11 -88 -28
-129 -8 -19 -15 -48 -15 -65 -1 -58 -46 -228 -48 -178 0 6 -7 12 -16 12 -9 0
-12 -5 -8 -12 5 -7 3 -8 -6 -3 -9 6 -10 21 -5 59 4 28 9 101 11 161 1 61 6
130 10 155 5 25 8 50 9 55 0 18 19 34 26 22 4 -5 14 -7 23 -4z m543 -45 c-3
-7 -5 -2 -5 12 0 14 2 19 5 13 2 -7 2 -19 0 -25z m-1618 -84 c32 -41 47 -99
33 -130 -14 -29 -15 -103 -3 -156 12 -51 -6 -66 -50 -44 -18 9 -45 16 -60 16
-15 0 -31 5 -34 10 -4 6 -28 9 -57 7 -73 -6 -130 13 -139 47 -9 34 8 43 52 27
61 -21 64 -19 98 89 22 69 40 105 57 119 13 10 24 23 24 28 0 5 13 10 29 11
21 2 35 -5 50 -24z m-252 -16 c-3 -7 -5 -2 -5 12 0 14 2 19 5 13 2 -7 2 -19 0
-25z m3398 5 c28 -38 -23 -76 -54 -40 -12 15 3 37 27 37 7 0 10 5 7 10 -10 17
7 11 20 -7z m92 -92 c36 -22 41 -29 36 -50 -4 -18 -3 -22 7 -16 8 5 11 4 7 -2
-6 -10 -94 -24 -149 -24 -15 0 -38 6 -50 13 -13 7 -26 11 -30 10 -15 -4 -8 26
13 52 11 14 29 26 39 26 10 0 22 5 25 10 4 6 11 8 16 5 5 -4 9 -2 9 4 0 13 25
4 77 -28z m-1827 9 c0 -5 -14 -7 -32 -3 -46 8 -48 13 -5 13 21 0 37 -4 37 -10z
m-30 -15 c5 3 11 1 15 -5 3 -5 11 -10 16 -10 6 0 8 4 4 9 -3 5 -1 12 5 16 20
12 26 -112 6 -132 -6 -6 -10 12 -7 30 1 4 -10 0 -24 -9 -14 -9 -31 -14 -39
-11 -8 3 -26 -3 -39 -14 -34 -26 -87 -26 -94 1 -3 11 -9 17 -14 14 -20 -12 -7
15 19 40 68 67 96 84 120 75 13 -5 27 -7 32 -4z m2242 0 c3 0 10 -4 15 -9 5
-5 3 -6 -4 -2 -8 4 -13 1 -13 -8 0 -10 9 -16 23 -17 18 0 16 -3 -12 -15 -43
-19 -61 -12 -61 25 0 29 16 44 35 32 6 -3 13 -6 17 -6z m-112 -25 c0 -11 6
-20 13 -21 6 0 -5 -7 -26 -16 -51 -21 -86 -12 -80 21 5 26 19 33 66 35 21 1
27 -4 27 -19z m216 -88 c-10 -2 -22 0 -28 6 -6 6 0 7 19 4 21 -5 23 -7 9 -10z
m-830 -22 c3 0 14 5 25 10 10 6 19 9 19 6 0 -15 -25 -56 -34 -56 -6 0 -5 5 2
12 19 19 14 26 -13 20 -17 -3 -25 0 -25 10 0 22 14 32 18 14 2 -9 6 -16 8 -16z
m571 4 c-3 -3 -12 -4 -19 -1 -8 3 -5 6 6 6 11 1 17 -2 13 -5z m-2059 -36 c17
-17 15 -58 -5 -80 -18 -20 -73 -24 -104 -8 -11 6 -19 7 -19 1 0 -5 -8 -7 -19
-4 -10 3 -22 0 -26 -7 -5 -8 -11 -6 -22 7 -8 10 -11 11 -7 3 5 -10 4 -12 -4
-5 -6 6 -8 23 -3 45 5 28 13 36 40 44 22 6 47 6 72 -1 30 -8 39 -7 43 4 7 16
38 17 54 1z m1102 0 c0 -6 -3 -9 -6 -5 -3 3 -17 2 -30 -3 -24 -9 -45 4 -22 13
24 10 58 7 58 -5z m280 -13 c0 -8 -4 -15 -10 -15 -5 0 -7 7 -4 15 4 8 8 15 10
15 2 0 4 -7 4 -15z m990 1 c-4 -4 -16 -4 -26 2 -16 9 -14 10 8 9 15 -1 23 -6
18 -11z m-893 -2 c-3 -3 -12 -4 -19 -1 -8 3 -5 6 6 6 11 1 17 -2 13 -5z m592
2 c-11 -9 -69 -14 -69 -6 0 6 17 10 37 10 20 0 34 -2 32 -4z m-639 -16 c-8 -5
-22 -9 -30 -9 -10 0 -8 3 5 9 27 12 43 12 25 0z m-550 -10 c0 -5 -5 -10 -11
-10 -5 0 -7 5 -4 10 3 6 8 10 11 10 2 0 4 -4 4 -10z m188 3 c-10 -2 -26 -2
-35 0 -10 3 -2 5 17 5 19 0 27 -2 18 -5z m-610 -20 c-2 -14 3 -17 22 -15 19 2
21 0 10 -7 -16 -10 -96 -18 -104 -10 -2 2 6 9 20 16 13 6 22 7 18 2 -3 -5 0
-9 5 -9 6 0 11 9 11 20 0 11 5 20 10 20 6 0 10 -8 8 -17z m-1662 -2 c-6 -9
-63 -7 -73 3 -4 3 13 6 36 6 23 0 40 -4 37 -9z m553 -14 c0 -9 -2 -8 -6 1 -2
6 -10 9 -15 6 -7 -4 -8 -2 -4 5 9 13 26 5 25 -12z m1489 16 c-10 -2 -28 -2
-40 0 -13 2 -5 4 17 4 22 1 32 -1 23 -4z m-2038 -33 c0 -5 -10 -10 -22 -10
-19 0 -20 2 -8 10 19 13 30 13 30 0z m545 -10 c3 -5 1 -10 -4 -10 -6 0 -11 5
-11 10 0 6 2 10 4 10 3 0 8 -4 11 -10z m1472 -6 c-3 -3 -12 -4 -19 -1 -8 3 -5
6 6 6 11 1 17 -2 13 -5z m1608 -24 c-3 -5 -13 -10 -21 -10 -14 0 -13 -2 0 -16
25 -24 19 -34 -19 -34 l-35 0 16 25 c16 25 16 25 -16 25 -26 0 -34 -5 -43 -30
-12 -32 -37 -41 -37 -12 0 14 2 15 10 2 7 -10 10 -11 10 -2 0 7 -8 15 -17 18
-10 3 -27 10 -38 14 -17 8 -16 9 10 9 24 0 124 11 178 20 5 0 5 -3 2 -9z
m-508 -17 c-15 -4 -16 -6 -2 -26 22 -31 19 -37 -21 -37 -28 0 -35 3 -30 15 3
8 2 15 -2 15 -4 0 -8 9 -9 20 -2 17 4 20 40 19 23 -1 34 -3 24 -6z m321 -54
c-19 -13 -28 -11 -28 5 0 9 7 12 21 9 16 -4 17 -8 7 -14z m-292 -28 c0 -16 -4
-17 -23 -10 -16 6 -23 5 -23 -3 0 -9 -3 -9 -12 0 -17 17 -28 15 -22 -5 5 -15
4 -16 -5 -3 -18 25 -13 29 37 33 26 2 47 4 47 5 1 1 1 -7 1 -17z m322 -26 c-3
-29 -18 -34 -18 -7 0 17 8 32 17 32 1 0 2 -11 1 -25z m141 8 c0 -5 -4 -17 -9
-28 -8 -18 -9 -17 -9 8 -1 15 4 27 9 27 6 0 10 -3 9 -7z m-479 -22 c0 -6 -4
-13 -10 -16 -5 -3 -10 1 -10 9 0 9 5 16 10 16 6 0 10 -4 10 -9z"/>
<path d="M3155 1830 c-3 -5 1 -10 10 -10 9 0 13 5 10 10 -3 6 -8 10 -10 10 -2
0 -7 -4 -10 -10z"/>
<path d="M3380 1666 c0 -8 4 -17 9 -20 5 -4 7 3 4 14 -6 23 -13 26 -13 6z"/>
<path d="M3421 1657 c2 -1 13 -9 24 -17 19 -14 19 -14 6 3 -7 9 -18 17 -24 17
-6 0 -8 -1 -6 -3z"/>
<path d="M3532 1538 c7 -15 15 -23 17 -17 2 6 -4 18 -13 27 -15 15 -15 15 -4
-10z"/>
<path d="M3060 1474 c0 -8 5 -12 10 -9 6 3 10 10 10 16 0 5 -4 9 -10 9 -5 0
-10 -7 -10 -16z"/>
<path d="M3037 1413 c-3 -21 -9 -49 -12 -63 -3 -14 1 -9 8 10 21 53 28 90 19
90 -5 0 -12 -17 -15 -37z"/>
<path d="M2970 1409 c0 -5 5 -7 10 -4 6 3 10 8 10 11 0 2 -4 4 -10 4 -5 0 -10
-5 -10 -11z"/>
<path d="M3441 1384 c0 -11 3 -14 6 -6 3 7 2 16 -1 19 -3 4 -6 -2 -5 -13z"/>
<path d="M2972 1180 c0 -14 2 -19 5 -12 2 6 2 18 0 25 -3 6 -5 1 -5 -13z"/>
<path d="M2951 1054 c0 -11 3 -14 6 -6 3 7 2 16 -1 19 -3 4 -6 -2 -5 -13z"/>
<path d="M3592 669 c2 -6 8 -11 13 -12 6 0 21 -6 34 -13 13 -7 30 -10 39 -7
11 5 9 9 -10 19 -34 18 -80 25 -76 13z"/>
<path d="M3346 641 c-7 -11 119 -13 147 -1 16 6 -1 9 -60 9 -45 1 -84 -3 -87
-8z"/>
<path d="M3879 515 c-26 -14 -104 -21 -129 -12 -33 12 -60 15 -60 6 0 -5 -9
-9 -19 -9 -11 0 -23 -4 -26 -10 -3 -5 -29 -9 -58 -9 -29 1 -73 -1 -99 -3 -25
-1 -44 0 -41 5 2 4 -13 7 -34 6 -21 0 -31 -3 -23 -6 8 -4 21 -15 28 -25 7 -10
18 -15 25 -11 6 3 25 7 41 6 17 0 34 5 38 10 4 7 13 6 24 -4 16 -12 17 -12 9
1 -7 12 -6 13 6 4 14 -11 158 -12 176 -1 6 4 48 7 95 8 93 1 112 7 103 32 -9
23 -27 27 -56 12z"/>
<path d="M3081 467 c-6 -8 -7 -18 -3 -22 4 -5 2 -6 -3 -2 -13 7 -42 -9 -33
-18 12 -12 73 -11 108 1 26 10 29 13 13 13 -12 1 -27 10 -33 21 -12 23 -33 26
-49 7z"/>
<path d="M3580 440 c-9 -6 -10 -10 -3 -10 6 0 15 5 18 10 8 12 4 12 -15 0z"/>
<path d="M2990 428 c-14 -5 -41 -7 -61 -4 -30 5 -38 2 -41 -12 -4 -15 2 -19
35 -21 22 -1 43 -2 46 -3 20 -2 31 4 31 17 0 9 6 12 15 9 8 -4 15 -1 15 4 0
17 -13 20 -40 10z"/>
<path d="M2870 370 c0 -5 6 -10 14 -10 8 0 18 5 21 10 3 6 -3 10 -14 10 -12 0
-21 -4 -21 -10z"/>
<path d="M3774 318 c-4 -6 -3 -8 4 -4 6 3 13 -2 15 -11 4 -17 5 -17 6 0 0 9 6
17 11 17 6 0 9 -3 9 -7 -3 -20 2 -34 11 -28 5 3 7 12 3 20 -3 8 0 15 5 15 6 0
12 -8 14 -17 3 -15 5 -14 10 5 6 20 3 22 -37 22 -24 0 -47 -5 -51 -12z"/>
<path d="M4058 1213 c7 -3 16 -2 19 1 4 3 -2 6 -13 5 -11 0 -14 -3 -6 -6z"/>
<path d="M4060 1056 c0 -2 7 -6 15 -10 8 -3 15 -1 15 4 0 6 -7 10 -15 10 -8 0
-15 -2 -15 -4z"/>
<path d="M2220 354 c0 -9 5 -14 12 -12 18 6 21 28 4 28 -9 0 -16 -7 -16 -16z"/>
<path d="M2218 323 c7 -3 16 -2 19 1 4 3 -2 6 -13 5 -11 0 -14 -3 -6 -6z"/>
<path d="M962 318 c3 -7 17 -14 33 -16 26 -3 27 -2 12 12 -19 19 -50 21 -45 4z"/>
<path d="M2553 233 c9 -2 25 -2 35 0 9 3 1 5 -18 5 -19 0 -27 -2 -17 -5z"/>
<path d="M1240 3307 c-67 -35 -63 -30 -66 -72 -2 -19 -10 -48 -19 -64 -18 -36
-19 -61 -2 -62 27 -1 73 -9 97 -15 45 -13 55 -15 65 -16 14 -2 18 -45 5 -53
-11 -7 6 -41 33 -67 15 -13 22 -14 32 -5 9 8 10 16 3 24 -5 7 -8 21 -6 32 5
30 105 151 165 199 29 24 53 47 53 51 0 10 -76 -5 -99 -20 -13 -9 -13 -10 4
-6 11 3 28 8 38 12 9 4 17 3 17 -2 0 -11 -9 -13 -75 -16 -48 -2 -50 -1 -53 26
-3 24 2 30 27 40 17 6 31 14 31 18 0 3 -44 10 -97 15 -97 10 -99 10 -153 -19z
m130 -242 c20 -24 6 -28 -15 -5 -10 11 -13 20 -8 20 6 0 16 -7 23 -15z"/>
<path d="M1510 3320 c-9 -6 -10 -10 -3 -10 6 0 15 5 18 10 8 12 4 12 -15 0z"/>
<path d="M3871 3214 c0 -11 3 -14 6 -6 3 7 2 16 -1 19 -3 4 -6 -2 -5 -13z"/>
<path d="M1298 2983 c7 -3 16 -2 19 1 4 3 -2 6 -13 5 -11 0 -14 -3 -6 -6z"/>
<path d="M1002 2645 c0 -71 -5 -145 -11 -163 -5 -18 -10 -36 -10 -40 -1 -4 -7
-14 -14 -22 -39 -46 -85 -151 -126 -290 -11 -36 -33 -103 -50 -150 -39 -113
-66 -218 -81 -315 -6 -44 -16 -102 -21 -130 -10 -55 -26 -150 -34 -205 -4 -26
-3 -31 4 -20 6 8 11 25 11 38 0 12 11 64 24 115 13 50 31 126 40 167 8 41 18
86 22 99 6 18 4 22 -6 16 -9 -5 -11 -4 -6 4 4 6 11 9 16 6 10 -6 84 135 115
218 14 38 22 47 42 47 16 0 22 4 17 13 -5 9 -4 9 6 0 8 -8 13 -36 12 -79 -1
-82 6 -79 14 7 2 35 17 95 32 134 23 62 27 85 28 207 1 75 7 174 13 220 16
122 20 176 14 182 -3 3 -14 1 -24 -4 -16 -9 -18 -5 -22 32 -2 24 -4 -15 -5
-87z m-152 -691 c0 -8 -3 -13 -7 -11 -5 3 -16 -20 -26 -51 -12 -39 -25 -60
-41 -68 -21 -10 -23 -9 -18 8 2 11 10 17 17 14 8 -3 16 2 19 10 3 8 -1 14 -10
14 -11 0 -12 4 -4 19 5 11 10 28 10 39 0 11 7 25 15 32 8 7 12 17 9 22 -4 6 3
5 15 -1 11 -7 21 -19 21 -27z"/>
<path d="M2637 2618 c-23 -22 -31 -33 -18 -22 13 10 31 18 41 16 10 -2 22 2
26 9 4 8 3 9 -4 5 -7 -4 -12 -5 -12 -2 0 3 12 12 28 20 26 15 26 15 4 16 -14
0 -40 -17 -65 -42z"/>
<path d="M1640 2495 c0 -3 10 -44 21 -91 l22 -86 31 7 c76 15 156 17 202 4 27
-8 64 -13 83 -11 29 3 21 8 -64 37 -114 40 -231 95 -262 124 -22 21 -33 26
-33 16z"/>
<path d="M3241 2313 c-1 -6 -4 -20 -7 -30 -5 -17 -5 -17 6 0 6 10 9 23 6 30
-3 9 -5 9 -5 0z"/>
<path d="M937 1593 c-3 -66 -13 -138 -22 -162 -8 -24 -13 -46 -10 -49 2 -3 7
4 11 14 18 56 46 104 55 98 6 -3 9 -17 6 -30 -2 -13 0 -24 6 -24 10 0 5 51
-14 135 -6 28 -10 69 -10 93 1 23 -3 42 -7 42 -5 0 -12 -53 -15 -117z"/>
<path d="M643 1250 c0 -25 2 -35 4 -22 2 12 2 32 0 45 -2 12 -4 2 -4 -23z"/>
<path d="M871 1154 c0 -11 3 -14 6 -6 3 7 2 16 -1 19 -3 4 -6 -2 -5 -13z"/>
<path d="M1186 1063 c-6 -14 -5 -15 5 -6 7 7 10 15 7 18 -3 3 -9 -2 -12 -12z"/>
<path d="M833 723 c-4 -21 -8 -40 -8 -43 -1 -3 -4 -14 -8 -25 -11 -31 -15 -85
-7 -85 14 0 32 57 37 122 6 74 -2 91 -14 31z"/>
<path d="M5098 633 c-25 -7 -28 -28 -4 -29 15 -1 22 5 23 17 1 11 1 18 0 18
-1 -1 -9 -3 -19 -6z"/>
<path d="M1670 509 c0 -5 9 -9 20 -9 11 0 20 2 20 4 0 2 -9 6 -20 9 -11 3 -20
1 -20 -4z"/>
<path d="M136 342 c-3 -5 1 -9 9 -9 8 0 12 4 9 9 -3 4 -7 8 -9 8 -2 0 -6 -4
-9 -8z"/>
<path d="M4832 321 c-11 -7 -11 -9 2 -14 10 -4 16 -1 16 8 0 17 -1 17 -18 6z"/>
<path d="M4874 308 c2 -16 9 -22 22 -20 26 5 29 9 14 27 -19 23 -40 19 -36 -7z"/>
<path d="M2040 313 c8 -3 18 -11 22 -17 5 -7 8 -4 8 7 0 11 -7 17 -22 16 -16
0 -18 -2 -8 -6z"/>
<path d="M97 283 c-4 -3 -2 -14 4 -25 6 -11 8 -26 5 -33 -4 -11 0 -12 18 -5
13 5 27 6 30 3 3 -4 6 0 6 7 0 11 3 11 12 2 7 -7 16 -12 22 -12 5 0 1 6 -9 14
-11 8 -23 12 -27 10 -4 -2 -9 0 -13 5 -3 6 -13 7 -22 4 -12 -5 -15 -2 -10 10
6 17 -5 31 -16 20z"/>
<path d="M2061 234 c0 -11 3 -14 6 -6 3 7 2 16 -1 19 -3 4 -6 -2 -5 -13z"/>
<path d="M595 230 c3 -5 8 -10 11 -10 2 0 4 5 4 10 0 6 -5 10 -11 10 -5 0 -7
-4 -4 -10z"/>
<path d="M18 218 c12 -6 22 -15 22 -20 0 -4 5 -8 12 -8 6 0 3 9 -7 20 -10 11
-25 20 -34 19 -11 0 -9 -4 7 -11z"/>
<path d="M317 213 c-13 -12 -7 -23 11 -22 10 0 12 3 4 6 -6 2 -10 9 -6 14 6
10 0 12 -9 2z"/>
<path d="M0 176 c0 -33 3 -36 28 -35 15 0 21 3 14 6 -6 2 -10 9 -6 14 3 5 -2
9 -10 9 -9 0 -13 6 -10 14 3 8 1 17 -5 21 -7 4 -11 -7 -11 -29z"/>
<path d="M387 169 c7 -7 15 -10 18 -7 3 3 -2 9 -12 12 -14 6 -15 5 -6 -5z"/>
<path d="M849 175 c-1 -3 -2 -8 -3 -12 -1 -5 -4 -13 -8 -18 -4 -6 -3 -17 3
-25 6 -10 9 -11 9 -2 0 6 -1 13 -2 15 -1 1 4 12 11 25 7 14 8 22 1 22 -5 0
-11 -2 -11 -5z"/>
<path d="M958 141 c12 -32 42 -41 42 -12 0 12 -9 20 -24 23 -19 4 -23 1 -18
-11z"/>
<path d="M1731 153 c-1 -17 16 -25 25 -12 4 7 3 9 -4 5 -5 -3 -13 0 -15 6 -4
9 -6 10 -6 1z"/>
<path d="M4780 151 c0 -7 -4 -10 -9 -7 -5 4 -12 0 -15 -6 -5 -10 -7 -10 -12 0
-3 6 -10 12 -16 12 -7 0 -6 -5 1 -14 9 -10 8 -16 -4 -26 -22 -19 -19 -49 5
-47 11 1 20 5 20 9 0 4 7 8 15 8 8 0 15 5 15 10 0 6 -12 10 -26 10 -14 0 -23
4 -19 10 4 6 11 8 16 5 5 -4 9 -1 9 5 0 6 5 8 10 5 11 -7 26 22 16 32 -3 4 -6
1 -6 -6z"/>
<path d="M1058 143 c7 -3 16 -2 19 1 4 3 -2 6 -13 5 -11 0 -14 -3 -6 -6z"/>
<path d="M1204 138 c-5 -8 1 -9 20 -4 16 4 33 3 39 -2 17 -13 49 -23 43 -14
-3 5 4 8 16 8 12 -1 23 4 25 10 5 16 -133 18 -143 2z"/>
<path d="M1570 138 c0 -14 8 -18 35 -18 26 0 33 3 29 15 -7 17 -24 20 -24 5 0
-12 -22 -9 -32 5 -4 6 -8 2 -8 -7z"/>
<path d="M1656 133 c-6 -14 -5 -15 5 -6 7 7 10 15 7 18 -3 3 -9 -2 -12 -12z"/>
<path d="M4030 140 c0 -5 7 -7 15 -4 8 4 15 1 15 -5 0 -6 5 -11 10 -11 6 0 10
7 10 15 0 9 -9 15 -25 15 -14 0 -25 -4 -25 -10z"/>
<path d="M4156 123 c7 -38 11 -39 16 -3 3 20 0 30 -8 30 -8 0 -11 -9 -8 -27z"/>
<path d="M119 127 c6 -8 7 -18 3 -22 -4 -5 -1 -5 6 -1 10 6 10 11 1 22 -6 8
-14 14 -16 14 -3 0 0 -6 6 -13z"/>
<path d="M3225 130 c3 -5 8 -10 11 -10 2 0 4 5 4 10 0 6 -5 10 -11 10 -5 0 -7
-4 -4 -10z"/>
<path d="M170 120 c-9 -6 -10 -10 -3 -10 6 0 15 5 18 10 8 12 4 12 -15 0z"/>
<path d="M4111 114 c0 -11 3 -14 6 -6 3 7 2 16 -1 19 -3 4 -6 -2 -5 -13z"/>
<path d="M35 110 c-3 -5 -1 -10 4 -10 6 0 11 5 11 10 0 6 -2 10 -4 10 -3 0 -8
-4 -11 -10z"/>
<path d="M60 111 c0 -6 9 -9 19 -8 11 0 17 5 15 9 -7 11 -34 10 -34 -1z"/>
<path d="M2380 100 c0 -5 7 -7 15 -4 8 4 15 8 15 10 0 2 -7 4 -15 4 -8 0 -15
-4 -15 -10z"/>
<path d="M4186 102 c-11 -10 -6 -22 9 -22 8 0 15 -8 15 -18 0 -10 5 -23 10
-28 7 -7 6 -11 -5 -11 -8 0 -15 8 -15 18 0 23 -12 30 -30 18 -10 -6 -11 -9 -2
-9 6 0 12 -7 12 -15 0 -8 -7 -15 -15 -15 -8 0 -15 4 -15 8 0 18 -26 8 -27 -10
-2 -17 5 -19 60 -16 l62 3 -1 33 c-1 31 0 32 16 17 11 -10 16 -24 12 -37 -3
-15 -2 -19 7 -14 27 17 0 96 -34 96 -5 0 -3 -5 5 -10 13 -8 13 -10 -2 -10 -9
0 -18 -5 -20 -12 -3 -7 -7 -5 -11 6 -4 10 -3 15 3 11 6 -3 10 -2 10 3 0 11
-36 23 -44 14z"/>
<path d="M7 89 c7 -7 15 -10 18 -7 3 3 -2 9 -12 12 -14 6 -15 5 -6 -5z"/>
<path d="M194 60 c4 -41 -8 -49 -30 -21 -9 11 -12 12 -19 1 -5 -8 -4 -11 3 -7
6 5 8 0 5 -11 -4 -15 1 -19 27 -20 30 -1 31 -1 28 49 -2 27 -7 49 -11 49 -4 0
-6 -18 -3 -40z"/>
<path d="M1548 93 c6 -2 18 -2 25 0 6 3 1 5 -13 5 -14 0 -19 -2 -12 -5z"/>
<path d="M1696 93 c5 -5 12 -12 16 -18 4 -6 8 -2 8 8 0 9 -7 17 -17 17 -9 0
-12 -3 -7 -7z"/>
<path d="M4080 80 c0 -5 5 -10 10 -10 6 0 10 5 10 10 0 6 -4 10 -10 10 -5 0
-10 -4 -10 -10z"/>
<path d="M4137 71 c-4 -17 -3 -21 5 -13 5 5 8 16 6 23 -3 8 -7 3 -11 -10z"/>
<path d="M77 74 c-9 -10 2 -24 19 -24 8 0 14 7 14 15 0 15 -21 21 -33 9z"/>
<path d="M2215 70 c3 -5 8 -10 11 -10 2 0 4 5 4 10 0 6 -5 10 -11 10 -5 0 -7
-4 -4 -10z"/>
<path d="M310 60 c0 -5 5 -10 10 -10 6 0 10 5 10 10 0 6 -4 10 -10 10 -5 0
-10 -4 -10 -10z"/>
<path d="M380 60 c-9 -6 -10 -10 -3 -10 6 0 15 5 18 10 8 12 4 12 -15 0z"/>
<path d="M2652 61 c-9 -5 -3 -8 18 -9 17 0 28 4 25 9 -8 11 -26 11 -43 0z"/>
<path d="M3720 60 c0 -5 5 -10 11 -10 5 0 7 5 4 10 -3 6 -8 10 -11 10 -2 0 -4
-4 -4 -10z"/>
<path d="M3925 60 c-3 -5 -1 -10 4 -10 6 0 11 5 11 10 0 6 -2 10 -4 10 -3 0
-8 -4 -11 -10z"/>
<path d="M4320 42 c0 -15 4 -20 16 -15 9 3 12 9 7 12 -4 3 -11 10 -15 15 -5 5
-8 0 -8 -12z"/>
<path d="M0 27 c0 -26 1 -26 70 -26 69 1 80 7 62 36 -6 10 -14 9 -36 -2 -37
-19 -55 -19 -78 2 -17 15 -18 15 -18 -10z"/>
<path d="M230 25 c0 -17 5 -25 13 -23 16 6 16 40 0 46 -8 2 -13 -6 -13 -23z"/>
<path d="M4052 34 c-13 -9 -38 -16 -56 -16 -61 0 -59 -15 2 -17 53 -1 61 2 67
19 6 18 9 19 22 8 14 -11 15 -11 12 1 -8 22 -22 23 -47 5z"/>
<path d="M287 26 c-6 -15 1 -26 15 -26 4 0 7 5 6 11 -2 6 3 14 11 17 10 3 12
0 8 -12 -5 -12 0 -16 18 -16 14 0 25 5 25 10 0 6 9 10 19 10 11 0 22 3 24 8 3
4 -23 8 -58 10 -47 1 -64 -1 -68 -12z"/>
<path d="M800 15 c-10 -12 -10 -15 4 -15 9 0 16 7 16 15 0 8 -2 15 -4 15 -2 0
-9 -7 -16 -15z"/>
<path d="M1305 20 c-3 -5 -5 -10 -3 -11 28 -7 38 -5 38 7 0 16 -26 19 -35 4z"/>
<path d="M950 9 c0 -5 5 -7 10 -4 6 3 10 8 10 11 0 2 -4 4 -10 4 -5 0 -10 -5
-10 -11z"/>
<path d="M1085 10 c-3 -5 -2 -10 4 -10 5 0 13 5 16 10 3 6 2 10 -4 10 -5 0
-13 -4 -16 -10z"/>
<path d="M3720 10 c-13 -8 -12 -10 3 -10 9 0 17 5 17 10 0 12 -1 12 -20 0z"/>
<path d="M568 3 c7 -3 16 -2 19 1 4 3 -2 6 -13 5 -11 0 -14 -3 -6 -6z"/>
</g>
</svg>
